<?xml version="1.0" encoding="UTF-8" standalone="yes"?>
<svg viewBox="0 0 300 300" version="1.2" width="300" height="300" baseProfile="tiny-ps"
  xmlns="http://www.w3.org/2000/svg">
  <title>Duosmium Scoring and Results</title>
  <defs id="defs1"/>
  <path d="m 71.955283,28.844936 0.234094,0.302824 c 0,0 38.973223,50.168126 9.865032,120.93577 -29.156781,70.88576 10.54716,120.9704 10.54716,120.9704 l 0.03721,0.047 c -0.01205,-0.0152 -0.185802,-0.24056 -0.414962,-0.5488 -1.844043,-6.22901 -14.159682,-52.94993 16.490983,-98.04516 32.83744,-48.31256 2.26394,-100.779382 2.26394,-100.779382 l -0.22117,-0.378788 0.39274,0.193271 c 0,0 21.08591,10.400339 42.45529,28.554849 21.36938,18.15451 43.03951,44.07233 44.17559,75.12513 0.56837,15.53557 -5.73341,29.31655 -15.49208,41.23986 -9.75865,11.92331 -22.97523,21.99588 -36.2598,30.12736 -24.57142,15.04016 -49.098358,23.3507 -52.690319,24.52977 3.255425,0.10047 31.893189,0.64804 62.266479,-10.19576 32.24125,-11.51075 66.07586,-35.88658 72.36303,-87.2541 3.14487,-25.69427 -5.0197,-47.59979 -19.02881,-65.98616 C 194.93054,89.296701 175.07958,74.423573 154.8417,62.759144 114.36594,39.430288 72.32632,28.938987 72.32632,28.938987 Z M 93.338991,271.11904 c -0.164467,-0.005 -0.495506,-0.0117 -0.525549,-0.0129 0.104367,0.003 0.222187,0.007 0.520898,0.0145 9.1e-4,-3e-4 0.0037,-10e-4 0.0047,-0.002 z m -0.525549,-0.0129 c -0.035,-10e-4 -0.1711,-0.005 -0.174666,-0.005 l 0.06046,0.002 c 0,0 0.107676,0.003 0.114206,0.003 z" id="path1"/>
</svg>